<?xml version="1.0" encoding="UTF-8"?>
<svg id="Calque_1" xmlns="http://www.w3.org/2000/svg" version="1.1" viewBox="0 0 168.8 148.5">
  <!-- Generator: Adobe Illustrator 29.1.0, SVG Export Plug-In . SVG Version: 2.1.0 Build 142)  -->
  <defs>
    <style>
      .st1 {
        fill: #ff540a;
      }
    </style>
  </defs>
  <path class="st1" d="M144.5,97.8c-7.2-5.2-15.4-7.8-24.4-7.8s-22.1,4.8-31.7,14.4l-41.8,41.8c-10.7-7.1-19.2-16.5-25.5-28-6.3-11.5-9.5-24-9.5-37.3s1.6-18.2,4.9-27.4h59.9v-8.7H14.4c-3.9-5.4-6.9-11.1-9.3-17.3h71.3v-8.6H2.5C1.1,13.6.3,8,0,2.1l90.2.2c14.3,0,27.4,3.5,39.4,10.6,12,7.1,21.6,16.6,28.6,28.6,7.1,12,10.6,25.2,10.6,39.5s-3.1,25.8-9.3,37.3c-2.9-8.4-7.9-15.2-15.1-20.4h0ZM136.1,61.3c1.7-1.7,2.6-3.8,2.6-6.3s-.9-4.6-2.6-6.3c-1.7-1.7-3.8-2.6-6.3-2.6s-4.6.9-6.3,2.6c-1.7,1.7-2.6,3.8-2.6,6.3s.9,4.6,2.6,6.3c1.7,1.7,3.8,2.6,6.3,2.6s4.6-.9,6.3-2.6Z"/>
</svg>