<svg width="20.2" height="32" viewBox="0 0 20.2 32" fill="none" xmlns="http://www.w3.org/2000/svg">
<g id="BMC Logo">
<path id="Vector_2" d="M3.13284 3.46729V7.53338C3.13284 8.19959 3.73297 9.26635 4.33311 9.59946L12.1335 14.1996L16.7336 11.4659L3.13284 3.46729ZM12.1335 17.8678L4.33311 22.468C3.73297 22.8011 3.13284 23.8678 3.13284 24.5354V28.6015L16.6662 20.6015L12.1335 17.8678ZM2.60013 32C1.33378 32 0 31.0007 0 29.0667V24.534C0 22.7336 1.13284 20.6676 2.73365 19.8004L9.06675 16.0674L2.73365 12.3345C1.20027 11.3338 0 9.33378 0 7.53338V2.93324C0 0.999325 1.33378 0 2.66622 0C3.19892 0 3.79905 0.133513 4.33311 0.466622L18.6001 8.93324C19.5994 9.53337 20.1335 10.4666 20.1335 11.3999C20.1335 12.3992 19.5334 13.3338 18.6001 13.8665L15.2003 15.8665L18.6001 17.8665C19.5994 18.4666 20.1996 19.3999 20.1996 20.3331C20.1996 21.3338 19.5994 22.267 18.6001 22.7997L4.33311 31.5334C3.73297 31.8665 3.20027 32 2.60013 32Z" fill="#FF5A4E"/>
</g>
</svg>
