<svg width="122" viewBox="0 0 224 160" fill="none" xmlns="http://www.w3.org/2000/svg"><title>Qt Group Logo, Link to home page.</title><path d="M85.0242 38.5439C76.0002 38.5439 69.8082 41.5199 66.4482 47.4719C63.0882 53.4239 61.4082 62.9279 61.4082 75.9839C61.4082 89.0399 63.0402 98.3679 66.3042 103.984C69.5682 109.6 75.8082 112.4 85.0242 112.4C94.2402 112.4 100.448 109.648 103.68 104.128C106.896 98.6079 108.496 89.2799 108.496 76.1279C108.496 62.9759 106.832 53.4239 103.536 47.4719C100.224 41.5199 94.0482 38.5439 85.0242 38.5439V38.5439Z" fill="black"></path><path d="M25.6 0L0 25.6V160H198.4L224 134.4V0H25.6ZM121.456 139.632L106.624 146.544L93.808 125.52C91.984 126.096 89.056 126.384 85.024 126.384C70.048 126.384 59.616 122.352 53.696 114.288C47.792 106.224 44.848 93.472 44.848 76.048C44.848 58.624 47.84 45.696 53.84 37.232C59.84 28.784 70.224 24.56 85.008 24.56C99.792 24.56 110.16 28.768 116.112 37.168C122.064 45.568 125.04 58.512 125.04 75.984C125.04 87.504 123.808 96.816 121.376 103.92C118.928 111.024 114.912 116.448 109.344 120.192L121.44 139.632H121.456ZM163.424 126.384C155.264 126.384 149.664 124.512 146.64 120.768C143.616 117.024 142.112 109.968 142.112 99.6V66.192H132.896V52.8H142.112V31.92H157.664V52.8H177.536V66.192H157.664V97.872C157.664 103.728 158.096 107.616 158.96 109.536C159.824 111.456 162.032 112.416 165.584 112.416L177.392 111.984L178.112 124.512C171.68 125.76 166.784 126.384 163.424 126.384V126.384Z" fill="black"></path></svg>